<svg width="26" height="26" viewBox="0 0 26 26" fill="none" xmlns="http://www.w3.org/2000/svg">
<rect width="26" height="26" rx="13" fill="#E6EBEE"/>
<path d="M13 22C11.7526 22 10.5804 21.7632 9.48337 21.2895C8.38568 20.8158 7.43421 20.1763 6.62895 19.3711C5.82368 18.5658 5.18421 17.6143 4.71053 16.5166C4.23684 15.4196 4 14.2474 4 13C4 11.7526 4.23684 10.5801 4.71053 9.48242C5.18421 8.38537 5.82368 7.43421 6.62895 6.62895C7.43421 5.82368 8.38568 5.18421 9.48337 4.71053C10.5804 4.23684 11.7526 4 13 4C14.2474 4 15.4199 4.23684 16.5176 4.71053C17.6146 5.18421 18.5658 5.82368 19.3711 6.62895C20.1763 7.43421 20.8158 8.38537 21.2895 9.48242C21.7632 10.5801 22 11.7526 22 13C22 14.2474 21.7632 15.4196 21.2895 16.5166C20.8158 17.6143 20.1763 18.5658 19.3711 19.3711C18.5658 20.1763 17.6146 20.8158 16.5176 21.2895C15.4199 21.7632 14.2474 22 13 22ZM12.0526 20.5316V18.6842C11.5316 18.6842 11.0857 18.4988 10.7149 18.1281C10.3436 17.7567 10.1579 17.3105 10.1579 16.7895V15.8421L5.61053 11.2947C5.56316 11.5789 5.51958 11.8632 5.47979 12.1474C5.44063 12.4316 5.42105 12.7158 5.42105 13C5.42105 14.9105 6.04884 16.5842 7.30442 18.0211C8.55937 19.4579 10.1421 20.2947 12.0526 20.5316ZM18.5895 18.1158C18.9053 17.7684 19.1895 17.3933 19.4421 16.9903C19.6947 16.588 19.9041 16.1696 20.0702 15.7351C20.2357 15.3012 20.362 14.8553 20.4492 14.3974C20.5357 13.9395 20.5789 13.4737 20.5789 13C20.5789 11.4526 20.1488 10.0354 19.2886 8.74821C18.4278 7.46168 17.2789 6.53421 15.8421 5.96579V6.36842C15.8421 6.88947 15.6567 7.33537 15.286 7.70611C14.9146 8.07747 14.4684 8.26316 13.9474 8.26316H12.0526V10.1579C12.0526 10.4263 11.962 10.6512 11.7807 10.8324C11.5988 11.0143 11.3737 11.1053 11.1053 11.1053H9.21053V13H14.8947C15.1632 13 15.3883 13.0906 15.5702 13.2719C15.7515 13.4538 15.8421 13.6789 15.8421 13.9474V16.7895H16.7895C17.2 16.7895 17.5711 16.9117 17.9026 17.1561C18.2342 17.4012 18.4632 17.7211 18.5895 18.1158Z" fill="#16103E"/>
</svg>
