<svg width="16" height="16" viewBox="0 0 16 16" fill="none" xmlns="http://www.w3.org/2000/svg">
<path d="M13.3359 5.33268L8.00261 8.66602L2.66927 5.33268V3.99935L8.00261 7.33268L13.3359 3.99935V5.33268ZM13.3359 2.66602H2.66927C1.92927 2.66602 1.33594 3.25935 1.33594 3.99935V11.9993C1.33594 12.353 1.47641 12.6921 1.72646 12.9422C1.97651 13.1922 2.31565 13.3327 2.66927 13.3327H13.3359C13.6896 13.3327 14.0287 13.1922 14.2787 12.9422C14.5288 12.6921 14.6693 12.353 14.6693 11.9993V3.99935C14.6693 3.64573 14.5288 3.30659 14.2787 3.05654C14.0287 2.80649 13.6896 2.66602 13.3359 2.66602Z" fill="#16103E"/>
</svg>
