<svg width="21" height="22" viewBox="0 0 21 22" fill="none" xmlns="http://www.w3.org/2000/svg">
<g clip-path="url(#clip0_7_14715)">
<path fill-rule="evenodd" clip-rule="evenodd" d="M8.7675 3.66667C7.10989 3.66667 5.52018 4.32515 4.34808 5.49725C3.17598 6.66935 2.5175 8.25906 2.5175 9.91667C2.5175 11.5743 3.17598 13.164 4.34808 14.3361C5.52018 15.5082 7.10989 16.1667 8.7675 16.1667C10.4251 16.1667 12.0148 15.5082 13.1869 14.3361C14.359 13.164 15.0175 11.5743 15.0175 9.91667C15.0175 8.25906 14.359 6.66935 13.1869 5.49725C12.0148 4.32515 10.4251 3.66667 8.7675 3.66667ZM3.16957 4.31874C4.65423 2.83408 6.66787 2 8.7675 2C10.8671 2 12.8808 2.83408 14.3654 4.31874C15.8501 5.8034 16.6842 7.81704 16.6842 9.91667C16.6842 11.7353 16.0584 13.4894 14.9261 14.8911L20.6073 20.5779L19.4277 21.7554L13.7482 16.0702C12.3455 17.2057 10.5888 17.8333 8.7675 17.8333C6.66787 17.8333 4.65423 16.9993 3.16957 15.5146C1.68491 14.0299 0.85083 12.0163 0.85083 9.91667C0.85083 7.81704 1.68491 5.8034 3.16957 4.31874Z" fill="#16103E"/>
</g>
<defs>
<clipPath id="clip0_7_14715">
<rect width="20" height="22" fill="white" transform="translate(0.85083)"/>
</clipPath>
</defs>
</svg>
