<svg width="16" height="16" viewBox="0 0 16 16" fill="none" xmlns="http://www.w3.org/2000/svg">
<path d="M12 4C13.38 5.36 13.9 7.26 13.5733 9.03333C13.8467 9.51333 14 10.0733 14 10.6667C14 11.5507 13.6488 12.3986 13.0237 13.0237C12.3986 13.6488 11.5507 14 10.6667 14C10.0733 14 9.51333 13.8467 9.03333 13.5733C7.26 13.9 5.36 13.38 4 12C2.62 10.64 2.1 8.74 2.42667 6.96667C2.15333 6.48667 2 5.92667 2 5.33333C2 4.44928 2.35119 3.60143 2.97631 2.97631C3.60143 2.35119 4.44928 2 5.33333 2C5.92667 2 6.48667 2.15333 6.96667 2.42667C8.74 2.1 10.64 2.62 12 4ZM8.02667 11.44C9.94 11.44 10.8933 10.52 10.8933 9.28C10.8933 8.48667 10.52 7.64 9.07333 7.31333L7.74667 7.02C7.24 6.90667 6.66667 6.75333 6.66667 6.28C6.66667 5.8 7.06667 5.46667 7.8 5.46667C9.28667 5.46667 9.14667 6.48667 9.88667 6.48667C10.2733 6.48667 10.6067 6.26 10.6067 5.86667C10.6067 4.95333 9.14667 4.26667 7.90667 4.26667C6.56667 4.26667 5.13333 4.84 5.13333 6.36C5.13333 7.09333 5.39333 7.87333 6.83333 8.23333L8.62667 8.68667C9.16667 8.82 9.3 9.12 9.3 9.4C9.3 9.85333 8.84667 10.3 8.02667 10.3C6.42 10.3 6.64 9.06667 5.78 9.06667C5.39333 9.06667 5.11333 9.33333 5.11333 9.71333C5.11333 10.4533 6 11.44 8.02667 11.44Z" fill="#16103E"/>
</svg>
